<svg version="1" xmlns="http://www.w3.org/2000/svg" width="522.667" height="522.667" viewBox="0 0 392.000000 392.000000"><path d="M75.9 122.7c-.6 1.6-1.2 3.5-1.4 4.3-.2.8-1 3.6-1.8 6.3-.8 2.6-1.2 4.9-.9 5 .4.2 58.5.3 129.1.3 127.4-.1 128.4-.1 129.1-2.1.4-1.1 1.7-5.3 2.8-9.3l2-7.2H77l-1.1 2.7zM217.4 155.5c-4.2 1.3-10.4 4.4-14.1 7.1l-2.3 1.6 1.4-4.6 1.4-4.6H185.1l-1.6 5.7c-2.2 7.5-7.7 26.9-15.9 56.3-3.6 12.9-7 24.7-7.5 26.2l-.9 2.6h9.4c7.8 0 9.4-.2 9.8-1.6.3-1 3.9-13.6 8.1-28.2 9-31.5 8.8-31.1 13.3-35.6 10.4-10.4 26.9-10.7 31.2-.5 1.9 4.7 1.7 5.4-8.4 40.9-3.7 12.8-6.4 23.7-6.1 24.2.3.5 4.4.9 9 .9h8.5l2.1-7.2c1.2-4 4.8-16.5 8-27.9 3.2-11.5 6.6-22.4 7.5-24.4 7-14.7 30.2-19 35.4-6.5 1.5 3.8.9 9.1-2.5 20.1-1.4 4.7-2.7 9.4-3 10.5-.2 1.1-2.4 9.1-4.9 17.7-2.5 8.6-4.6 16.1-4.6 16.7 0 .5 3.9.8 9.1.8l9.2-.2 8.9-31c11.4-39.8 11.8-45.6 3.7-53.7-9-8.9-28.9-8.8-44.4.3l-6.8 4-3.1-3.4c-5-5.5-9-7-18.6-7.3-4.7-.1-10.3.4-12.6 1.1zM43.7 269.8c-1.5 4.9-2.7 9.1-2.7 9.3 0 .6 236.7.5 237.3-.1 1-1 5.4-16.9 4.9-17.5-.3-.3-53.7-.5-118.7-.5H46.3l-2.6 8.8z"/></svg>